<svg xmlns="http://www.w3.org/2000/svg" viewBox="0 0 456.84 41.583"><path d="M99.447,8.711a5.425,5.425,0,0,1,2.7.639,5.2,5.2,0,0,1,1.89,1.881l-1.206.936a4.261,4.261,0,0,0-1.5-1.629,4.029,4.029,0,0,0-2.025-.477,3.97,3.97,0,0,0-1.575.27,1.993,1.993,0,0,0-.909.711,1.789,1.789,0,0,0-.288,1,1.68,1.68,0,0,0,.4,1.107,2.89,2.89,0,0,0,1.584.747l2.574.576a4.4,4.4,0,0,1,2.385,1.143,2.766,2.766,0,0,1,.675,1.9,2.976,2.976,0,0,1-.567,1.791,3.665,3.665,0,0,1-1.593,1.215,6.185,6.185,0,0,1-2.412.432A6.749,6.749,0,0,1,97.3,20.6a5.383,5.383,0,0,1-1.683-.945,5.479,5.479,0,0,1-1.152-1.332l1.26-1.026A4.371,4.371,0,0,0,96.6,18.5a3.753,3.753,0,0,0,1.305.81,4.961,4.961,0,0,0,1.755.288,5.022,5.022,0,0,0,1.593-.225,2.18,2.18,0,0,0,1.035-.666,1.639,1.639,0,0,0,.36-1.071,1.585,1.585,0,0,0-.378-1.035,2.534,2.534,0,0,0-1.422-.693l-2.79-.63a5.447,5.447,0,0,1-1.773-.693,2.664,2.664,0,0,1-.972-1.044,2.913,2.913,0,0,1-.3-1.3,3.111,3.111,0,0,1,.531-1.755A3.748,3.748,0,0,1,97.08,9.2,5.359,5.359,0,0,1,99.447,8.711Z"/><path d="M118.653,8.891v11.88h-1.368V13.3l.162-3.132h-.018l-3.907,10.6H112.3l-3.906-10.6h-.018l.162,3.132v7.47h-1.369V8.891h2.215l2.61,7.218.9,2.97h.036l.918-2.952,2.591-7.236Z"/><polygon points="124.546 41.583 122.446 41.583 151.622 0 153.722 0 124.546 41.583"/><path d="M9.792,24H6.084v8.676H0V8.912H11.34q4.32,0,6.642,1.944A6.91,6.91,0,0,1,20.3,16.471a7.456,7.456,0,0,1-1.188,4.321,6.918,6.918,0,0,1-3.456,2.555l6.048,9.325h-6.84ZM6.084,19.6H10.3a4.614,4.614,0,0,0,2.88-.72,2.776,2.776,0,0,0,.9-2.3,2.731,2.731,0,0,0-.9-2.268,4.614,4.614,0,0,0-2.88-.72H6.084Z"/><path d="M38.412,27.307H30.2l-1.656,5.365H22.32l8.352-23.76h7.416L46.4,32.672H40.032Zm-1.3-4.212-1.728-5.688-1.044-3.743h-.072L33.3,17.372,31.5,23.1Z"/><path d="M67.805,11.989q2.97,3.079,2.97,8.8t-2.97,8.8q-2.97,3.078-8.55,3.079H49.175V8.912h10.08Q64.835,8.912,67.805,11.989Zm-4.77,14.2a8.687,8.687,0,0,0,1.4-5.4,8.692,8.692,0,0,0-1.4-5.4,5.223,5.223,0,0,0-4.391-1.8H55.367v14.4h3.277A5.221,5.221,0,0,0,63.035,26.191Z"/><path d="M86.22,32.672l-3.529-6.264-3.6,6.264H72.324l6.48-9.108-6.228-8.892h6.947l3.312,6.012,3.385-6.012h6.768L86.724,23.6l6.407,9.072Z"/><path d="M175.773,11.918q3.078,3.006,3.079,8.694,0,5.832-3.079,8.945t-8.766,3.115H159.52V8.912h7.487Q172.7,8.912,175.773,11.918Zm-1.332,16.416q2.538-2.682,2.538-7.722,0-4.824-2.538-7.435t-7.29-2.609h-5.832V31.015h5.832Q171.9,31.015,174.441,28.334Z"/><path d="M184.018,10.766a1.484,1.484,0,0,1-.414-1.1,1.513,1.513,0,1,1,3.024,0,1.555,1.555,0,0,1-2.61,1.1Zm2,21.906h-1.8v-18h1.8Z"/><path d="M208.335,31.231l-.108,1.441a3.658,3.658,0,0,1-1.764.36,3.026,3.026,0,0,1-2.052-.685,3.3,3.3,0,0,1-.9-2.376,5.5,5.5,0,0,1-2.664,2.25,9.442,9.442,0,0,1-3.852.811,7,7,0,0,1-4.266-1.189,3.96,3.96,0,0,1-1.6-3.383q0-4.176,6.84-5.4l5.508-.972V20.5A4.468,4.468,0,0,0,202.2,17.12a5.022,5.022,0,0,0-3.618-1.224,5.635,5.635,0,0,0-5.76,3.816L191.451,18.7a6.283,6.283,0,0,1,2.628-3.258,8.408,8.408,0,0,1,4.5-1.134,7.3,7.3,0,0,1,4.914,1.53,5.537,5.537,0,0,1,1.782,4.446v9.288q0,1.908,1.656,1.907A3.182,3.182,0,0,0,208.335,31.231Zm-8.208-.305a6.015,6.015,0,0,0,2.394-1.548,3.494,3.494,0,0,0,.954-2.466V23.564l-4.932.9a10.7,10.7,0,0,0-4.248,1.511,2.959,2.959,0,0,0-1.332,2.485,2.53,2.53,0,0,0,1.116,2.214,5.365,5.365,0,0,0,3.1.774A8.6,8.6,0,0,0,200.127,30.926Z"/><path d="M225.471,31.952a3.5,3.5,0,0,1,1.548,2.987,4.193,4.193,0,0,1-1.1,2.862,7.1,7.1,0,0,1-3.042,1.926,13.3,13.3,0,0,1-4.428.685,12.087,12.087,0,0,1-6.228-1.315,3.945,3.945,0,0,1-2.16-3.473,3.582,3.582,0,0,1,.864-2.412,4.754,4.754,0,0,1,2.376-1.441,4.168,4.168,0,0,1-1.71-1.3,2.957,2.957,0,0,1-.63-1.836,3.085,3.085,0,0,1,.846-2.2,4.81,4.81,0,0,1,2.286-1.3,5.59,5.59,0,0,1-2.268-2.033,5.455,5.455,0,0,1-.792-2.935,5.191,5.191,0,0,1,2-4.265,8.24,8.24,0,0,1,5.31-1.6,9.488,9.488,0,0,1,4.068.827,4.117,4.117,0,0,1,1.44-2.754,4.6,4.6,0,0,1,3.06-1.025l.432,1.584a4.242,4.242,0,0,0-2.664.755,2.99,2.99,0,0,0-1.116,2.161,5.288,5.288,0,0,1,2.052,4.319,5.243,5.243,0,0,1-2,4.285,8.118,8.118,0,0,1-5.274,1.62,13.246,13.246,0,0,1-2.448-.252,4.446,4.446,0,0,0-2.358.882,2.111,2.111,0,0,0-.846,1.673,2.046,2.046,0,0,0,.972,1.8,5.293,5.293,0,0,0,2.916.649h4.644A7.141,7.141,0,0,1,225.471,31.952Zm-1.926,5.886a3.1,3.1,0,0,0,1.854-2.682,2.29,2.29,0,0,0-1.17-2.034,6.422,6.422,0,0,0-3.4-.738h-4.644a5.768,5.768,0,0,0-3.258.81,2.471,2.471,0,0,0-1.206,2.142,2.9,2.9,0,0,0,1.8,2.61,11.121,11.121,0,0,0,5.112.953A9.852,9.852,0,0,0,223.545,37.838Zm-9.234-14.454a7.38,7.38,0,0,0,8.028,0,3.9,3.9,0,0,0,1.476-3.205,3.85,3.85,0,0,0-1.476-3.186,6.266,6.266,0,0,0-4-1.17,6.344,6.344,0,0,0-4.014,1.17,3.832,3.832,0,0,0-1.494,3.186A3.9,3.9,0,0,0,214.311,23.384Z"/><path d="M243.957,16.04a6.39,6.39,0,0,1,1.89,4.968V32.672h-1.8V21.584a5.829,5.829,0,0,0-1.4-4.284,5.206,5.206,0,0,0-3.851-1.4,6.672,6.672,0,0,0-3.205.792,5.962,5.962,0,0,0-2.358,2.3,6.881,6.881,0,0,0-.882,3.529V32.672h-1.8v-18h1.62l.072,3.636a6.261,6.261,0,0,1,2.646-2.97,8.041,8.041,0,0,1,4.086-1.026A7.1,7.1,0,0,1,243.957,16.04Z"/><path d="M265.772,16.814a9.783,9.783,0,0,1,2.286,6.858,9.783,9.783,0,0,1-2.286,6.858,9.137,9.137,0,0,1-12.564,0,9.783,9.783,0,0,1-2.286-6.858,9.783,9.783,0,0,1,2.286-6.858,9.137,9.137,0,0,1,12.564,0Zm-11.25,1.133a8.482,8.482,0,0,0-1.8,5.725,8.473,8.473,0,0,0,1.8,5.723,6.954,6.954,0,0,0,9.936,0,8.473,8.473,0,0,0,1.8-5.723,8.482,8.482,0,0,0-1.8-5.725,6.957,6.957,0,0,0-9.936,0Z"/><path d="M274.43,31.952a5.711,5.711,0,0,1-2.771-3.132l1.475-.973a4.4,4.4,0,0,0,2.2,2.7,8.422,8.422,0,0,0,4.068.9,6.778,6.778,0,0,0,3.834-.937,2.87,2.87,0,0,0,1.386-2.483A2.439,2.439,0,0,0,283.43,25.9a11.874,11.874,0,0,0-4.176-1.333,13.314,13.314,0,0,1-5.328-1.835,3.841,3.841,0,0,1-1.548-3.276,4.318,4.318,0,0,1,.865-2.593A5.755,5.755,0,0,1,275.691,15a9,9,0,0,1,3.6-.684,8.438,8.438,0,0,1,4.553,1.08A5.575,5.575,0,0,1,286.2,18.7l-1.548.9q-1.009-3.708-5.364-3.708a6.977,6.977,0,0,0-2.611.468,4.652,4.652,0,0,0-1.836,1.242,2.519,2.519,0,0,0-.666,1.674,2.629,2.629,0,0,0,1.225,2.3,11.887,11.887,0,0,0,4.319,1.367,12.236,12.236,0,0,1,5.185,1.765,3.837,3.837,0,0,1,1.511,3.24,4.305,4.305,0,0,1-1.961,3.689,8.975,8.975,0,0,1-5.275,1.387A9.924,9.924,0,0,1,274.43,31.952Z"/><path d="M301.43,31.519a4.9,4.9,0,0,1-1.764,1.116,6.453,6.453,0,0,1-2.3.4,4.73,4.73,0,0,1-3.439-1.206,4.883,4.883,0,0,1-1.241-3.654V16.219h-3.6V14.672h3.6v-4.5l1.8-.5v5h6.768v1.547h-6.768v11.7a3.674,3.674,0,0,0,.81,2.574,3.042,3.042,0,0,0,2.358.882,4.292,4.292,0,0,0,3.132-1.332Z"/><path d="M304.868,10.766a1.484,1.484,0,0,1-.414-1.1,1.513,1.513,0,1,1,3.024,0,1.555,1.555,0,0,1-2.61,1.1Zm2,21.906h-1.8v-18h1.8Z"/><path d="M325.244,15.59a7.074,7.074,0,0,1,2.717,3.582l-1.691.792a5.659,5.659,0,0,0-2.053-3.024,5.97,5.97,0,0,0-3.6-1.044,6.086,6.086,0,0,0-4.9,2.07,8.515,8.515,0,0,0-1.764,5.706A8.561,8.561,0,0,0,315.7,29.4a6.059,6.059,0,0,0,4.878,2.053,6.582,6.582,0,0,0,3.906-1.135,4.723,4.723,0,0,0,1.962-3.149l1.656.576a7.051,7.051,0,0,1-2.718,3.87,8.905,8.905,0,0,1-11-1.062,9.917,9.917,0,0,1-2.232-6.876,9.867,9.867,0,0,1,2.25-6.876,9.007,9.007,0,0,1,10.836-1.206Z"/><path d="M334.045,31.952a5.713,5.713,0,0,1-2.772-3.132l1.477-.973a4.4,4.4,0,0,0,2.2,2.7,8.418,8.418,0,0,0,4.067.9,6.776,6.776,0,0,0,3.834-.937,2.867,2.867,0,0,0,1.386-2.483,2.438,2.438,0,0,0-1.188-2.124,11.882,11.882,0,0,0-4.175-1.333,13.3,13.3,0,0,1-5.328-1.835,3.838,3.838,0,0,1-1.548-3.276,4.322,4.322,0,0,1,.863-2.593A5.761,5.761,0,0,1,335.305,15a9,9,0,0,1,3.6-.684,8.441,8.441,0,0,1,4.553,1.08,5.574,5.574,0,0,1,2.358,3.312l-1.548.9q-1.008-3.708-5.363-3.708a6.973,6.973,0,0,0-2.611.468,4.638,4.638,0,0,0-1.836,1.242,2.519,2.519,0,0,0-.666,1.674,2.63,2.63,0,0,0,1.224,2.3,11.894,11.894,0,0,0,4.32,1.367,12.225,12.225,0,0,1,5.184,1.765,3.836,3.836,0,0,1,1.513,3.24,4.306,4.306,0,0,1-1.962,3.689,8.975,8.975,0,0,1-5.275,1.387A9.921,9.921,0,0,1,334.045,31.952Z"/><path d="M376.686,10.766a6.334,6.334,0,0,1,2.179,5.094,6.386,6.386,0,0,1-2.179,5.111,8.721,8.721,0,0,1-5.886,1.872h-6.084v9.829h-1.8V8.912H370.8A8.782,8.782,0,0,1,376.686,10.766Zm-1.367,9.017a4.821,4.821,0,0,0,1.638-3.923,4.836,4.836,0,0,0-1.638-3.906,7.146,7.146,0,0,0-4.735-1.386h-5.868V21.152h5.868A7.206,7.206,0,0,0,375.319,19.783Z"/><path d="M396.847,16.814a9.783,9.783,0,0,1,2.286,6.858,9.783,9.783,0,0,1-2.286,6.858,9.137,9.137,0,0,1-12.564,0A9.779,9.779,0,0,1,382,23.672a9.779,9.779,0,0,1,2.286-6.858,9.137,9.137,0,0,1,12.564,0ZM385.6,17.947a8.478,8.478,0,0,0-1.8,5.725,8.469,8.469,0,0,0,1.8,5.723,6.954,6.954,0,0,0,9.936,0,8.473,8.473,0,0,0,1.8-5.723,8.482,8.482,0,0,0-1.8-5.725,6.957,6.957,0,0,0-9.936,0Z"/><path d="M414.216,14.924l-.467,1.691a3.665,3.665,0,0,0-2.305-.647,4.4,4.4,0,0,0-2.574.846,6.008,6.008,0,0,0-1.944,2.376,7.728,7.728,0,0,0-.738,3.4v10.08h-1.8v-18H405.9l.216,3.671a6.45,6.45,0,0,1,2.25-2.969,6.021,6.021,0,0,1,3.582-1.062A3.742,3.742,0,0,1,414.216,14.924Z"/><path d="M427.356,31.519a4.9,4.9,0,0,1-1.764,1.116,6.447,6.447,0,0,1-2.3.4,4.728,4.728,0,0,1-3.439-1.206,4.879,4.879,0,0,1-1.242-3.654V16.219h-3.6V14.672h3.6v-4.5l1.8-.5v5h6.767v1.547h-6.767v11.7a3.679,3.679,0,0,0,.809,2.574,3.043,3.043,0,0,0,2.359.882,4.29,4.29,0,0,0,3.131-1.332Z"/><path d="M446.869,31.231l-.109,1.441a3.654,3.654,0,0,1-1.763.36,3.024,3.024,0,0,1-2.052-.685,3.307,3.307,0,0,1-.9-2.376,5.491,5.491,0,0,1-2.664,2.25,9.434,9.434,0,0,1-3.851.811,7,7,0,0,1-4.267-1.189,3.961,3.961,0,0,1-1.6-3.383q0-4.176,6.839-5.4l5.508-.972V20.5a4.463,4.463,0,0,0-1.277-3.384,5.025,5.025,0,0,0-3.618-1.224,5.633,5.633,0,0,0-5.76,3.816L429.985,18.7a6.273,6.273,0,0,1,2.628-3.258,8.4,8.4,0,0,1,4.5-1.134,7.3,7.3,0,0,1,4.914,1.53,5.539,5.539,0,0,1,1.781,4.446v9.288q0,1.908,1.656,1.907A3.187,3.187,0,0,0,446.869,31.231Zm-8.208-.305a6,6,0,0,0,2.393-1.548,3.494,3.494,0,0,0,.954-2.466V23.564l-4.931.9a10.69,10.69,0,0,0-4.248,1.511A2.957,2.957,0,0,0,431.5,28.46a2.532,2.532,0,0,0,1.116,2.214,5.364,5.364,0,0,0,3.1.774A8.6,8.6,0,0,0,438.661,30.926Z"/><path d="M452.2,28.315a3.97,3.97,0,0,0,.521,2.341,2.06,2.06,0,0,0,1.746.684,5.078,5.078,0,0,0,2.376-.5l-.252,1.727a5.574,5.574,0,0,1-2.376.469,3.574,3.574,0,0,1-2.879-1.1A5.22,5.22,0,0,1,450.4,28.5V6.392h1.8Z"/></svg>