<?xml version="1.0" encoding="utf-8"?>
<!-- Generator: Adobe Illustrator 25.2.3, SVG Export Plug-In . SVG Version: 6.00 Build 0)  -->
<svg version="1.1" id="Layer_1" xmlns="http://www.w3.org/2000/svg" xmlns:xlink="http://www.w3.org/1999/xlink" x="0px" y="0px"
	 viewBox="0 0 517 73" style="enable-background:new 0 0 517 73;" xml:space="preserve">
<style type="text/css">
	.st0{fill:#FFFFFF;}
</style>
<path class="st0" d="M83.9,59.7v-47h20.5c2,0,4,0.4,5.8,1.3c1.7,0.9,3.3,2.1,4.6,3.5c1.3,1.4,2.3,3.1,3,4.9c0.7,1.8,1.1,3.7,1.1,5.6
	c0,2-0.4,4.1-1.1,6c-0.7,1.8-1.8,3.5-3.2,4.9c-1.4,1.4-3,2.4-4.9,3l11.1,17.9h-8.4l-10.2-16.4H91.3v16.4L83.9,59.7z M91.3,36.8h13
	c1.3,0,2.6-0.4,3.6-1.2c1.1-0.8,2-1.9,2.5-3.2c0.6-1.4,0.9-2.9,0.9-4.4c0-1.5-0.3-3-1.1-4.4c-0.7-1.2-1.6-2.3-2.7-3.1
	c-1.1-0.8-2.4-1.2-3.7-1.2H91.3V36.8z M141.2,12.7h7l18.3,47h-7.8l-5-12.8h-18.2l-4.9,12.8h-7.9L141.2,12.7z M152.3,41.4l-7.6-20.6
	l-7.8,20.6H152.3z M172.4,59.7v-47h16.7c4.5-0.2,8.9,0.9,12.7,3.1c3.3,2,6,5,7.7,8.5c1.7,3.7,2.6,7.7,2.6,11.8
	c0.1,4.3-0.9,8.6-2.8,12.5c-1.8,3.5-4.6,6.3-8,8.2c-3.7,2-7.9,3-12.1,2.9L172.4,59.7z M204.4,36.1c0.1-3-0.6-6-1.8-8.8
	c-1.1-2.4-3-4.5-5.2-6c-2.5-1.5-5.4-2.2-8.3-2.2h-9.3v33.9h9.3c3,0.1,5.9-0.7,8.4-2.3c2.3-1.5,4.1-3.6,5.2-6.1
	C203.9,42.1,204.5,39.1,204.4,36.1L204.4,36.1z M222.3,25l8.2,11.9l0.6,1.1l0.6-1.1l8.1-11.9h7.9l-12.5,17.4l12.6,17.3H240
	l-8.3-11.8l-0.6-1.1l-0.6,1.1l-8.3,11.8h-7.9L227,42.5L214.5,25L222.3,25z M261.6,15.9c-0.3-0.3-0.6-0.6-1-0.9
	c-0.4-0.3-0.8-0.5-1.2-0.6c-0.4-0.2-0.9-0.3-1.4-0.4c-0.5-0.1-1.1-0.1-1.6-0.1c-1.4-0.1-2.8,0.3-4,1c-0.8,0.7-1.3,1.7-1.3,2.8
	c0,0.7,0.2,1.3,0.6,1.9c0.5,0.5,1.1,0.9,1.8,1.1c1,0.3,2.1,0.6,3.2,0.8c1.2,0.2,2.4,0.6,3.5,1c0.9,0.3,1.7,0.8,2.3,1.5
	c0.6,0.8,0.9,1.7,0.8,2.6c0,0.8-0.1,1.5-0.5,2.2c-0.3,0.6-0.8,1.2-1.4,1.5c-0.7,0.4-1.4,0.7-2.1,0.9c-0.9,0.2-1.8,0.3-2.7,0.3
	c-0.9,0-1.9-0.1-2.8-0.3c-0.9-0.2-1.7-0.5-2.5-0.9c-0.8-0.4-1.5-0.9-2.2-1.6l0.7-1.1c0.4,0.4,0.8,0.8,1.3,1.1c0.5,0.3,1,0.6,1.6,0.8
	c0.6,0.2,1.2,0.4,1.8,0.5c0.7,0.1,1.4,0.2,2,0.2c1.3,0.1,2.7-0.2,3.9-0.9c0.9-0.6,1.4-1.6,1.4-2.7c0-0.7-0.2-1.4-0.6-2
	c-0.5-0.6-1.2-1-2-1.3c-1.1-0.4-2.2-0.7-3.3-0.9c-1.1-0.2-2.3-0.6-3.4-1c-0.8-0.3-1.5-0.8-2.1-1.4c-0.5-0.7-0.7-1.6-0.7-2.4
	c0-1,0.3-2,0.8-2.9c0.6-0.8,1.4-1.4,2.3-1.8c1.1-0.4,2.3-0.6,3.5-0.6c0.8,0,1.5,0.1,2.3,0.2c0.7,0.2,1.3,0.4,1.9,0.7
	c0.6,0.3,1.2,0.8,1.7,1.2L261.6,15.9z M283.7,31.6V15.4l-7.4,12.7h-0.9L268,15.4v16.2h-1.4V12.8h1.4l7.8,13.5l7.8-13.5h1.4v18.8
	H283.7z M300,59.7V13.3h19.5c1.9,0,3.8,0.4,5.5,1.2c1.6,0.8,3.1,1.9,4.3,3.3c1.2,1.4,2.2,2.9,2.8,4.6c0.7,1.7,1,3.4,1,5.2
	c0,2.2-0.5,4.4-1.4,6.5c-0.9,2-2.2,3.7-3.9,5c-1.7,1.4-3.7,2.2-5.8,2.5l11.7,18H330l-11.4-17.5h-15.2v17.5H300z M303.4,39.1h16.5
	c1.9,0,3.8-0.5,5.3-1.6c1.5-1.1,2.7-2.6,3.5-4.2c0.8-1.7,1.2-3.6,1.2-5.6c0-2-0.5-3.9-1.4-5.6c-0.9-1.7-2.2-3.1-3.8-4.2
	c-1.5-1.1-3.4-1.6-5.3-1.6h-16V39.1z M338.7,49.9c0-1.9,0.6-3.8,1.9-5.3c1.4-1.6,3.1-2.8,5.1-3.5c2.4-0.9,4.9-1.3,7.5-1.3
	c1.8,0,3.7,0.2,5.5,0.5c1.7,0.3,3.4,0.7,5.1,1.2v-3.2c0.1-2.8-0.9-5.5-2.7-7.5c-2-1.9-4.8-3-7.6-2.8c-1.8,0-3.7,0.4-5.4,1
	c-2,0.8-3.9,1.8-5.7,3l-1.4-2.4c2-1.4,4.2-2.5,6.5-3.4c2-0.7,4.1-1.1,6.3-1.1c4.1,0,7.4,1.2,9.7,3.6c2.4,2.4,3.6,5.7,3.6,9.8v16.9
	c0,0.4,0.1,0.8,0.4,1.2c0.3,0.3,0.7,0.4,1.1,0.5v2.7c-0.3,0-0.7,0.1-1,0.1h-0.7c-0.8-0.1-1.5-0.5-2-1c-0.5-0.5-0.7-1.2-0.8-1.9v-2.7
	c-1.6,2-3.7,3.6-6.1,4.6c-2.5,1.1-5.1,1.6-7.8,1.6c-2,0-4-0.4-5.9-1.4c-1.7-0.9-3.1-2.2-4.1-3.8C339.2,53.6,338.7,51.8,338.7,49.9z
	 M362.4,52.7c0.4-0.5,0.7-1,1-1.6c0.2-0.5,0.3-0.9,0.3-1.4V44c-1.6-0.6-3.3-1.1-5-1.4c-1.7-0.3-3.5-0.5-5.3-0.5
	c-2.9-0.1-5.8,0.6-8.4,2c-2,1.1-3.2,3.2-3.2,5.5c0,1.4,0.4,2.8,1.1,4c0.8,1.2,1.9,2.3,3.1,2.9c1.4,0.8,3,1.1,4.7,1.1
	c2.4,0,4.7-0.5,6.9-1.4C359.6,55.6,361.2,54.3,362.4,52.7z M374.7,42.8c0-3,0.7-6,2.1-8.8c1.3-2.6,3.2-4.8,5.6-6.4
	c2.4-1.6,5.2-2.5,8.1-2.5c2.8,0,5.6,0.8,8,2.4c2.2,1.5,4.1,3.4,5.5,5.6V12h3.3v43.4c0,0.4,0.1,0.8,0.4,1.2c0.3,0.3,0.6,0.4,1,0.5
	v2.7c-0.5,0.1-1.1,0.1-1.6,0.1c-0.8-0.1-1.5-0.5-2-1.1c-0.5-0.5-0.8-1.2-0.8-2v-3.8c-1.4,2.3-3.4,4.1-5.7,5.4c-2.2,1.3-4.8,2-7.4,2
	c-2.3,0-4.6-0.5-6.6-1.5c-2-1-3.8-2.3-5.3-4c-1.5-1.7-2.6-3.6-3.4-5.6C375.1,47.2,374.7,45,374.7,42.8z M404,48.3V37.1
	c-0.7-1.7-1.7-3.3-3-4.5c-1.3-1.4-2.9-2.5-4.6-3.3c-1.6-0.8-3.3-1.2-5.1-1.2c-1.9,0-3.7,0.4-5.4,1.2c-1.6,0.8-3,2-4.2,3.3
	c-1.2,1.4-2.1,3-2.7,4.7c-0.6,1.8-0.9,3.6-0.9,5.5c0,1.9,0.4,3.8,1.1,5.5c0.7,1.7,1.7,3.3,2.9,4.7c1.2,1.3,2.7,2.4,4.4,3.2
	c1.7,0.8,3.5,1.2,5.4,1.1c1.3,0,2.6-0.3,3.8-0.7c1.4-0.5,2.7-1.2,3.8-2c1.2-0.8,2.2-1.8,3-2.9C403.4,50.7,403.9,49.5,404,48.3z
	 M417.9,59.7v-34h3.3v34H417.9z M417.9,18v-6h3.3v6L417.9,18z M446.2,60.4c-2.3,0-4.6-0.5-6.7-1.4c-2-0.9-3.9-2.2-5.4-3.9
	c-1.5-1.6-2.8-3.6-3.6-5.7c-0.9-2.2-1.3-4.5-1.3-6.9c0-3.1,0.7-6.1,2.2-8.8c1.4-2.6,3.5-4.7,6-6.3c2.6-1.6,5.7-2.4,8.7-2.4
	c2.9-0.1,5.8,0.7,8.3,2.1c2.3,1.4,4.2,3.4,5.4,5.8l-3.2,1c-1-1.9-2.5-3.4-4.3-4.4c-1.9-1.1-4-1.6-6.2-1.6c-2.4,0-4.8,0.6-6.8,1.9
	c-2,1.3-3.7,3.1-4.9,5.2c-1.2,2.3-1.9,4.8-1.8,7.4c0,2.6,0.6,5.2,1.9,7.4c1.2,2.2,2.9,4,4.9,5.4c2,1.3,4.4,2,6.8,2
	c1.6,0,3.2-0.3,4.7-0.9c1.4-0.5,2.8-1.3,4-2.3c1-0.8,1.8-1.9,2.2-3.1l3.2,0.9c-0.6,1.7-1.6,3.1-3,4.3c-1.5,1.3-3.1,2.3-4.9,2.9
	C450.3,60,448.3,60.4,446.2,60.4L446.2,60.4z M464.8,49.9c0-1.9,0.6-3.8,1.9-5.3c1.4-1.6,3.1-2.8,5.1-3.5c2.4-0.9,4.9-1.3,7.5-1.3
	c1.8,0,3.7,0.2,5.5,0.5c1.7,0.3,3.4,0.7,5.1,1.2v-3.2c0.1-2.8-0.9-5.5-2.7-7.5c-2-1.9-4.8-3-7.6-2.8c-1.8,0-3.7,0.4-5.4,1
	c-2,0.8-3.9,1.8-5.7,3l-1.4-2.4c2-1.4,4.2-2.5,6.5-3.4c2-0.7,4.1-1.1,6.3-1.1c4.1,0,7.4,1.2,9.7,3.6c2.4,2.4,3.6,5.7,3.6,9.8v16.9
	c0,0.4,0.1,0.8,0.4,1.2c0.3,0.3,0.7,0.4,1.1,0.5v2.7c-0.3,0-0.7,0.1-1,0.1H493c-0.8-0.1-1.5-0.5-2-1c-0.5-0.5-0.7-1.2-0.8-1.9v-2.7
	c-1.6,2-3.7,3.6-6.1,4.6c-2.5,1.1-5.1,1.6-7.9,1.6c-2,0-4-0.4-5.9-1.4c-1.7-0.9-3.1-2.2-4.1-3.8C465.3,53.6,464.8,51.8,464.8,49.9z
	 M488.5,52.7c0.4-0.5,0.7-1,1-1.6c0.2-0.5,0.3-0.9,0.3-1.4V44c-1.6-0.6-3.3-1.1-5-1.4c-1.7-0.3-3.5-0.5-5.3-0.5
	c-2.9-0.1-5.8,0.6-8.4,2c-2,1.1-3.2,3.2-3.2,5.5c0,1.4,0.4,2.8,1.1,4c0.8,1.2,1.9,2.3,3.1,2.9c1.4,0.8,3,1.1,4.7,1.1
	c2.4,0,4.7-0.5,6.9-1.4C485.7,55.6,487.3,54.3,488.5,52.7z M503.5,12h3.4v41c-0.1,1.2,0.2,2.3,1,3.2c0.7,0.6,1.6,0.9,2.6,0.9
	c0.7,0,1.5-0.1,2.2-0.2c0.7-0.1,1.3-0.3,2-0.5l0.7,2.7c-0.9,0.3-1.8,0.5-2.8,0.7c-0.9,0.2-1.9,0.3-2.8,0.3c-1.7,0.1-3.3-0.5-4.5-1.7
	c-1.2-1.2-1.8-2.8-1.7-4.5L503.5,12z M21,46.3L21,46.3c-1.1,2.3-0.5,5,1.4,6.5c2.3,1.9,5.7,1.6,7.6-0.7l0,0l6.3-9.6l-12.9,0L21,46.3
	z M62.7,32.1c1.6,1.4,4.1,1.2,5.4-0.4c1.4-1.6,1.2-4.1-0.4-5.4c-1.6-1.4-4.1-1.2-5.4,0.4c0,0,0,0.1-0.1,0.1l-0.3,0.3
	c-0.6,0.7-1.3,1.3-2.1,1.7c-0.7,0.2-1.4,0.4-2.2,0.5c-0.9-2.9-2.3-5.5-4.2-7.9c0.5-0.4,1-0.7,1.6-0.9c0.6-0.1,1.1-0.2,1.7-0.1H57
	c1.3,0.2,2.5-0.7,2.7-2c0.2-1.3-0.7-2.5-2-2.7c-1.3-0.2-2.5,0.7-2.7,2c0,0,0,0,0,0c0,0.1,0,0.2-0.1,0.3c-0.1,0.6-0.3,1.1-0.6,1.6
	c-0.4,0.5-0.8,0.9-1.3,1.3c-1.9-2.3-4.3-4.3-6.9-5.8c0.3-0.5,0.7-0.9,1.1-1.2c0.8-0.5,1.6-0.9,2.5-1.1l0.4-0.1
	c2.1-0.4,3.5-2.4,3.1-4.5c-0.4-2.1-2.4-3.5-4.5-3.1c-2.1,0.4-3.5,2.4-3.1,4.5c0,0,0,0.1,0,0.1c0,0.2,0,0.3,0.1,0.5
	c0.2,0.9,0.2,1.8,0.1,2.8c-0.2,0.6-0.4,1.1-0.7,1.6c-2.4-1.2-4.9-2-7.6-2.4c0.1-0.5,0.2-1,0.4-1.5c0.3-0.5,0.7-1,1.1-1.3l0.2-0.2
	c1.1-0.8,1.3-2.4,0.4-3.4c-0.8-1.1-2.4-1.3-3.4-0.4c-1.1,0.8-1.3,2.4-0.4,3.4c0,0,0,0,0,0L36.1,9c0.4,0.5,0.6,1,0.8,1.6
	c0.1,0.5,0.1,1.1,0,1.6C36,12.1,35,12,34.1,12c-2.2,0-4.4,0.3-6.5,0.9c-0.2-0.9-0.3-1.8-0.4-2.6c0.1-0.9,0.5-1.8,0.9-2.6l0.2-0.4
	C29.4,5.4,28.8,3,27,2s-4.2-0.5-5.3,1.4s-0.5,4.2,1.4,5.3c0,0,0,0,0,0l0.4,0.2c0.8,0.5,1.5,1.1,2.1,1.8c0.4,0.8,0.8,1.6,1,2.5
	c-3.2,1-6.2,2.7-8.7,5c-0.4-0.4-0.7-0.8-1-1.3c-0.2-0.5-0.3-1-0.3-1.5c0-0.1,0-0.2,0-0.3c0-1.2-1-2.2-2.2-2.2c-1.2,0-2.2,1-2.2,2.2
	c0,0.6,0.2,1.1,0.6,1.5c0.4,0.4,1,0.7,1.6,0.6h0.3c0.5,0,1,0.1,1.5,0.3c0.5,0.3,0.9,0.6,1.2,1c-1.4,1.3-2.7,2.8-3.7,4.4
	c-0.3-0.2-0.5-0.4-0.7-0.6c-0.2-0.3-0.3-0.7-0.4-1.1l0-0.1c-0.1-0.9-1-1.4-1.8-1.3c-0.9,0.1-1.4,1-1.3,1.8c0.1,0.9,1,1.4,1.8,1.3
	c0,0,0,0,0.1,0h0.2c0.4-0.1,0.8-0.1,1.1,0c0.3,0.1,0.6,0.3,0.8,0.4c-0.9,1.3-1.6,2.7-2.2,4.2c-0.7-0.2-1.4-0.5-2-0.8
	c-0.7-0.6-1.3-1.3-1.8-2.1l-0.3-0.4c-1.1-1.8-3.5-2.4-5.3-1.4c-1.8,1.1-2.4,3.5-1.4,5.3s3.5,2.4,5.3,1.4c0,0,0.1,0,0.1-0.1l0.4-0.2
	c0.8-0.5,1.7-0.8,2.6-1c0.7,0,1.4,0.1,2.1,0.2c-0.9,2.6-1.4,5.3-1.4,8c0,0.7,0,1.4,0.1,2.1c-0.6,0.1-1.2,0.1-1.7,0.1
	c-0.5-0.1-1-0.3-1.4-0.6L6.3,38c-1-0.7-2.3-0.5-3,0.5c-0.7,1-0.5,2.3,0.5,3c0.5,0.3,1.1,0.5,1.6,0.4C6,41.8,6.5,41.5,6.8,41L7,40.8
	c0.3-0.4,0.7-0.8,1.1-1.1c0.5-0.2,1-0.4,1.6-0.5c0.3,2.5,0.9,5,1.9,7.3c-0.9,0.4-1.8,0.7-2.7,0.9c-1,0-2-0.2-2.9-0.5l-0.5-0.2
	c-2.1-0.8-4.5,0.2-5.3,2.4c-0.8,2.1,0.2,4.5,2.4,5.3c2.1,0.8,4.5-0.2,5.3-2.4c0,0,0,0,0-0.1l0.2-0.4C8.5,50.6,9,49.7,9.6,49
	c0.8-0.6,1.6-1.1,2.5-1.5c1,2,2.3,3.8,3.7,5.5c-0.4,0.4-0.9,0.7-1.4,1c-0.7,0.2-1.5,0.4-2.2,0.3h-0.4c-1.7-0.1-3.2,1.3-3.3,3
	c-0.1,1.7,1.3,3.2,3,3.3c1.7,0.1,3.2-1.3,3.3-3c0,0,0,0,0-0.1v-0.4c0-0.8,0.2-1.5,0.5-2.2c0.3-0.5,0.7-1,1.1-1.4
	c1.1,1.2,2.4,2.2,3.7,3.1c-0.3,0.4-0.7,0.8-1.1,1.2c-0.5,0.3-1,0.4-1.5,0.5l-0.3,0c-1.2,0.2-2,1.3-1.8,2.5c0.2,1.2,1.3,2,2.5,1.8
	c0.6-0.1,1.1-0.4,1.4-0.9c0.3-0.5,0.5-1.1,0.4-1.6c0-0.1,0-0.2,0-0.3c-0.1-0.5-0.1-1,0.1-1.6c0.2-0.5,0.5-1,0.8-1.4
	c1.5,1,3.2,1.9,4.9,2.5c-0.3,0.8-0.6,1.5-1,2.2c-0.6,0.7-1.4,1.3-2.2,1.7l-0.4,0.2c-1.9,1-2.7,3.3-1.7,5.2s3.3,2.7,5.2,1.7
	c1.9-1,2.7-3.3,1.7-5.2c0,0,0-0.1,0-0.1c-0.1-0.1-0.1-0.3-0.2-0.4c-0.4-0.8-0.7-1.7-0.8-2.6c0.1-0.8,0.2-1.6,0.4-2.4
	c2.5,0.8,5.1,1.2,7.7,1.2h1.1c0,0.6-0.1,1.3-0.2,1.9c-0.2,0.5-0.6,1-1,1.4l-0.2,0.2c-1,0.9-1,2.4-0.1,3.4s2.4,1,3.4,0.1
	s1-2.4,0.1-3.4c0,0,0,0,0,0c-0.1-0.1-0.1-0.1-0.2-0.2C36.6,64,36.3,63.6,36,63c-0.1-0.6-0.2-1.3-0.2-2c2.7-0.2,5.3-0.8,7.7-1.8
	c0.2,0.8,0.3,1.6,0.4,2.4c-0.1,0.9-0.5,1.8-0.9,2.6l-0.2,0.4c-1.1,1.8-0.4,4.2,1.4,5.3c1.8,1.1,4.2,0.4,5.3-1.4
	c1.1-1.8,0.4-4.2-1.4-5.3c0,0,0,0,0,0L47.6,63c-0.8-0.5-1.5-1.1-2.1-1.8c-0.4-0.8-0.8-1.6-1-2.4c2.2-1,4.2-2.4,6-3.9
	c0.4,0.5,0.7,1,0.9,1.5c0.1,0.6,0.2,1.1,0.1,1.7c0,0.1,0,0.2,0,0.3c-0.1,0.6,0.1,1.3,0.5,1.8c0.8,1,2.3,1.2,3.4,0.4
	c1-0.8,1.2-2.3,0.4-3.4c-0.4-0.5-1-0.8-1.6-0.9l-0.3,0c-0.6-0.1-1.1-0.3-1.6-0.5c-0.5-0.4-0.9-0.8-1.3-1.3c1.8-1.7,3.3-3.6,4.5-5.7
	c0.8,0.4,1.5,0.9,2.2,1.5c0.6,0.7,1,1.6,1.3,2.4l0.2,0.4c0.6,2,2.7,3.2,4.8,2.6c2-0.6,3.2-2.7,2.6-4.8c-0.6-2-2.7-3.2-4.8-2.6
	c0,0-0.1,0-0.1,0l-0.4,0.1c-0.9,0.3-1.8,0.4-2.7,0.3c-0.8-0.2-1.7-0.5-2.5-0.9c1.2-2.3,2-4.9,2.5-7.5c0.6,0.1,1.2,0.2,1.8,0.4
	c0.5,0.3,0.9,0.7,1.3,1.1l0.2,0.2c0.8,1.1,2.3,1.3,3.4,0.5s1.3-2.3,0.5-3.4s-2.3-1.3-3.4-0.5c0,0,0,0-0.1,0l-0.2,0.2
	c-0.4,0.4-1,0.6-1.5,0.8c-0.6,0.1-1.2,0.1-1.8,0c0.4-3.1,0.2-6.3-0.6-9.4c0.7,0,1.3,0,2,0.1l0,0c0.9,0.3,1.7,0.8,2.4,1.4L62.7,32.1z
	 M49,27.9l-0.8-0.5l-1.5,2.4l-3.1-2l-0.8,1.2l3.1,2l-1.8,2.7l-3.1-2l-0.8,1.2l3.1,2l-1.8,2.7l-3.1-2l-0.8,1.2l3.1,2l-9.4,14.5
	c-2,2.8-6,3.3-9.2,1.3c-3.2-2.1-4.3-6-2.6-8.9l16.8-25.9l-0.8-0.5l2-3.1L51,24.8L49,27.9z"/>
</svg>
